# xmcd
#
# Track frame offsets: 
#        150
#        18907
#        34914
#        46348
#        63768
#        77965
#        91020
#        108217
#        125121
#        139470
#        152168
#        167614
#
# Disc length: 2461 seconds
#
# Revision: 0
# Processed by: cddbd v1.5.2PL0 Copyright (c) Steve Scherf et al.
# Submitted via: ExactAudioCopy v1.0b1
#
DISCID=97099b0c
DTITLE=Kenny Rogers - Covered by Kenny
DYEAR=1900
DGENRE=Country
TTITLE0=You've lost that lovin' feeling
TTITLE1=Just the way you are
TTITLE2=Me and Bobby McGee
TTITLE3=We've got tonight
TTITLE4=All I ever need is you
TTITLE5=You are so beautiful
TTITLE6=Endless love
TTITLE7=Desparado
TTITLE8=(Hey won't you play) Another somebody done somebody wrong song
TTITLE9=Baby I'm -A want you
TTITLE10=Let it be me
TTITLE11=Ain't no sunshine
EXTD=
EXTT0=
EXTT1=
EXTT2=
EXTT3=
EXTT4=
EXTT5=
EXTT6=
EXTT7=
EXTT8=
EXTT9=
EXTT10=
EXTT11=
PLAYORDER=
